<svg xmlns="http://www.w3.org/2000/svg" width="185" height="36" viewBox="0 0 185 36">
    <g fill="none" fill-rule="evenodd">
        <path fill="#000" d="M42.757 13.501V10.07h3.03v-4.97h4.26v4.97h4.33V13.5h-4.33v7.975c0 .763.138 1.394.414 1.895.276.5.896.75 1.858.75.289 0 .602-.03.939-.089.337-.059.637-.148.902-.268l.144 3.361c-.385.143-.842.256-1.37.34-.53.083-1.035.125-1.517.125-1.155 0-2.092-.16-2.814-.482-.721-.322-1.294-.763-1.714-1.323-.421-.56-.71-1.204-.867-1.931-.156-.727-.234-1.508-.234-2.343v-8.01h-3.031"/>
        <path fill="#000" d="M53.258 10.069L57.949 10.069 61.557 22.37 61.629 22.37 65.346 10.069 69.965 10.069 73.718 22.37 73.79 22.37 77.472 10.069 81.983 10.069 75.992 27.233 71.589 27.233 67.656 15.218 67.584 15.218 63.686 27.233 59.284 27.233 53.258 10.069M95.152 16.934c0-.548-.078-1.072-.233-1.573-.157-.5-.404-.941-.74-1.323-.338-.38-.765-.685-1.282-.912-.517-.226-1.125-.34-1.822-.34-1.299 0-2.4.388-3.302 1.162-.902.776-1.401 1.77-1.497 2.986h8.876zm4.33 1.931v.572c0 .191-.012.382-.035.573H86.276c.048.62.21 1.186.486 1.698.277.513.644.953 1.101 1.323.457.37.974.662 1.552.876.577.215 1.178.322 1.805.322 1.082 0 1.995-.197 2.742-.59.745-.393 1.359-.935 1.84-1.627l2.887 2.289c-1.709 2.288-4.186 3.432-7.434 3.432-1.347 0-2.586-.208-3.716-.625-1.132-.417-2.112-1.007-2.942-1.77-.83-.764-1.478-1.699-1.948-2.808-.47-1.108-.703-2.365-.703-3.772 0-1.382.234-2.64.703-3.773.47-1.132 1.113-2.097 1.93-2.896.818-.798 1.787-1.418 2.905-1.86 1.12-.44 2.328-.661 3.627-.661 1.202 0 2.315.197 3.338.59 1.022.393 1.906.978 2.653 1.752.745.775 1.328 1.74 1.75 2.897.42 1.156.63 2.51.63 4.058zM101.9 10.069h4.114v2.753h.072c.384-.858 1.052-1.615 2.003-2.27.95-.656 2.075-.984 3.373-.984 1.131 0 2.1.197 2.906.59.805.393 1.467.912 1.985 1.556.517.643.895 1.382 1.136 2.217.24.834.361 1.693.361 2.574v10.728h-4.33V17.72c0-.5-.036-1.024-.108-1.573-.072-.549-.23-1.043-.47-1.484-.24-.44-.572-.805-.992-1.091-.421-.286-.98-.43-1.678-.43s-1.299.138-1.804.412c-.505.275-.92.626-1.246 1.055-.324.43-.571.925-.739 1.484-.168.56-.253 1.126-.253 1.698v9.44h-4.33V10.07M118.644 13.501V10.07h3.03v-4.97h4.259v4.97h4.33V13.5h-4.33v7.975c0 .763.138 1.394.415 1.895.276.5.896.75 1.859.75.288 0 .6-.03.937-.089.337-.059.638-.148.903-.268l.145 3.361c-.387.143-.843.256-1.372.34-.53.083-1.035.125-1.515.125-1.156 0-2.094-.16-2.816-.482-.721-.322-1.293-.763-1.714-1.323-.421-.56-.71-1.204-.866-1.931-.156-.727-.234-1.508-.234-2.343v-8.01h-3.03"/>
        <path fill="#000" d="M129 10.069h4.8l4.835 12.48h.072l4.295-12.48h4.51l-8.191 20.847c-.314.787-.65 1.484-1.01 2.092-.361.608-.795 1.12-1.3 1.537-.504.417-1.1.733-1.786.948-.686.214-1.51.322-2.472.322-.36 0-.728-.018-1.1-.054-.374-.036-.753-.101-1.137-.197l.36-3.718c.29.095.572.16.85.196.275.036.534.054.774.054.457 0 .843-.054 1.155-.161.313-.107.577-.275.794-.5.216-.227.408-.508.577-.841.169-.335.349-.727.542-1.18l.866-2.181L129 10.069M163.969 18.865c0-.93-.145-1.806-.433-2.628-.29-.822-.704-1.538-1.245-2.146-.542-.607-1.21-1.09-2.003-1.448-.794-.357-1.696-.536-2.707-.536-.938 0-1.804.173-2.598.518-.793.347-1.48.823-2.056 1.43-.578.609-1.03 1.324-1.353 2.146-.326.823-.488 1.71-.488 2.664 0 .954.162 1.842.488 2.664.324.823.775 1.532 1.353 2.128.577.596 1.263 1.067 2.056 1.412.794.346 1.66.519 2.598.519 1.01 0 1.913-.173 2.707-.519.794-.345 1.461-.822 2.003-1.43.54-.608.956-1.323 1.245-2.146.288-.822.433-1.698.433-2.628zm-12.594 5.543v2.825h-2.454V.199h2.454v13.195h.072c.722-1.096 1.66-1.924 2.814-2.485 1.155-.56 2.346-.84 3.573-.84 1.323 0 2.52.226 3.59.68 1.07.452 1.985 1.072 2.743 1.858.759.787 1.347 1.717 1.768 2.79.421 1.072.632 2.229.632 3.468 0 1.24-.211 2.396-.632 3.469-.42 1.073-1.01 2.002-1.768 2.789-.758.787-1.672 1.407-2.743 1.86-1.07.452-2.267.679-3.59.679-1.227 0-2.418-.274-3.573-.823-1.154-.547-2.092-1.358-2.814-2.431h-.072zM172.232 10.498c.048.452.084.954.108 1.502.024.548.036 1 .036 1.358h.072c.481-.977 1.263-1.77 2.346-2.378 1.082-.607 2.225-.911 3.428-.911 2.141 0 3.747.632 4.818 1.895 1.07 1.264 1.606 2.932 1.606 5.006v10.263h-2.455V17.97c0-.882-.071-1.68-.216-2.396-.145-.715-.39-1.328-.74-1.841-.349-.513-.818-.912-1.407-1.198-.59-.286-1.33-.43-2.22-.43-.65 0-1.28.132-1.894.394-.613.263-1.16.662-1.642 1.198-.482.537-.866 1.216-1.154 2.038-.29.823-.433 1.795-.433 2.915v8.582h-2.454V14.18c0-.453-.013-1.037-.036-1.752-.025-.715-.06-1.36-.108-1.931h2.345M32.73 4.396c-2.427 0-4.393 1.95-4.393 4.353 0 2.405 1.966 4.353 4.393 4.353 2.426 0 4.393-1.948 4.393-4.353 0-2.404-1.967-4.353-4.393-4.353m0 1.788c1.427 0 2.589 1.151 2.589 2.565 0 1.415-1.162 2.565-2.59 2.565-1.427 0-2.588-1.15-2.588-2.565 0-1.414 1.16-2.565 2.589-2.565M18.508 18.49c-2.426 0-4.392 1.95-4.392 4.354s1.966 4.352 4.392 4.352c2.428 0 4.394-1.948 4.394-4.352 0-2.405-1.966-4.354-4.394-4.354m0 1.788c1.428 0 2.59 1.151 2.59 2.566 0 1.414-1.162 2.564-2.59 2.564-1.427 0-2.588-1.15-2.588-2.564 0-1.415 1.16-2.566 2.588-2.566M4.484 18.635c-2.426 0-4.394 1.948-4.394 4.352 0 2.404 1.968 4.353 4.394 4.353s4.393-1.949 4.393-4.353-1.967-4.352-4.393-4.352m0 1.788c1.427 0 2.588 1.15 2.588 2.564 0 1.414-1.161 2.565-2.588 2.565-1.428 0-2.59-1.15-2.59-2.565 0-1.414 1.162-2.564 2.59-2.564"/>
        <path stroke="#000" stroke-width="1.8" d="M30.041 11.126l-9.095 9.013m-5.54-9.013L6.312 20.14m22.642 2.72h-7.07"/>
        <path fill="#000" d="M32.616 18.522c-2.427 0-4.393 1.949-4.393 4.353 0 2.405 1.966 4.353 4.393 4.353 2.427 0 4.393-1.948 4.393-4.353 0-2.404-1.966-4.353-4.393-4.353m0 1.788c1.427 0 2.589 1.15 2.589 2.565 0 1.414-1.162 2.565-2.59 2.565-1.426 0-2.588-1.15-2.588-2.565 0-1.414 1.162-2.565 2.589-2.565M18.41 4.502c-2.426 0-4.393 1.948-4.393 4.353 0 2.404 1.967 4.353 4.393 4.353 2.427 0 4.393-1.95 4.393-4.353 0-2.405-1.966-4.353-4.393-4.353m0 1.788c1.427 0 2.59 1.15 2.59 2.565 0 1.413-1.163 2.565-2.59 2.565-1.428 0-2.588-1.152-2.588-2.565 0-1.415 1.16-2.565 2.588-2.565"/>
        <path stroke="#000" stroke-width="1.8" d="M21.06 11.126L29.858 19.844"/>
    </g>
</svg>
