<svg xmlns="http://www.w3.org/2000/svg" xmlns:xlink="http://www.w3.org/1999/xlink" width="190" height="190" viewBox="0 0 190 190"><defs><clipPath id="b"><rect width="190" height="190"/></clipPath></defs><g id="a" clip-path="url(#b)"><rect width="190" height="190" fill="#fff"/><g transform="translate(0 260.073)"><g transform="translate(0 -253.073)"><path d="M0-62.987H190V-253.073H0Z" transform="translate(0 245.987)" fill="#142b3b"/><path d="M107.491-99.93v-8.3h6.637l-6.083-4.345h-5.373a.331.331,0,0,0-.316.315v16.672s3.476-1.975,7.663-4.346h-2.528" transform="translate(-31.206 210.237)" fill="#fff"/><path d="M124.058-106.093h0s-2.292,1.264-5.294,2.844v5.293h-9.086c-4.267,2.45-7.664,4.346-7.664,4.346h21.57a.331.331,0,0,0,.316-.316l.158-12.167" transform="translate(-31.102 208.262)" fill="#41a7b7"/><path d="M126.376-112.685H110.652l6.084,4.345h4.82v3.082a53.767,53.767,0,0,1,5.293-2.844v-4.109c-.158-.237-.395-.474-.473-.474" transform="translate(-33.735 210.272)" fill="#ee2e49"/><path d="M116.532-115.3h2.449v1.028h1.106v-2.054h-4.662v2.054h1.107V-115.3" transform="translate(-35.19 211.381)" fill="#ee2e49"/><path d="M244.91-165.766h-4.82a.331.331,0,0,0-.316.316v21.886a.332.332,0,0,0,.316.315h4.82a.332.332,0,0,0,.316-.315v-21.729c-.079-.237-.237-.474-.316-.474" transform="translate(-73.101 226.455)" fill="#fff"/><path d="M229.453-165.766h-4.9a.331.331,0,0,0-.316.316v17.7a.331.331,0,0,1-.315.316h-10.43a.332.332,0,0,0-.316.316v3.634a.333.333,0,0,0,.316.317h15.96a.332.332,0,0,0,.316-.317v-21.885a.555.555,0,0,0-.316-.395" transform="translate(-64.993 226.455)" fill="#fff"/><path d="M54.328-150.27a1.793,1.793,0,0,1-1.026-.236,1.776,1.776,0,0,1-.237-1.185,1.656,1.656,0,0,1,.473-1.343,4.034,4.034,0,0,1,2.055-.316,3.234,3.234,0,0,1,2.45.711,4.444,4.444,0,0,1,.79,2.528Zm1.5-7.268c-2.765,0-4.741.474-6.085,1.5a5.3,5.3,0,0,0-1.975,4.5,5.189,5.189,0,0,0,1.264,3.634,5.547,5.547,0,0,0,3.871,1.264h5.531v1.818H37.34a.332.332,0,0,1-.316-.316v-12.089a.51.51,0,0,0-.474-.475H31.968a.51.51,0,0,0-.474.475v16.039c0,.79-.078,1.264-.316,1.5a2.347,2.347,0,0,1-1.5.316H26.832a.332.332,0,0,0-.316.316l-.316,2.845c0,.237.079.474.316.474.948.079,3.319.316,5.136.316,3.792,0,5.61-1.738,5.61-5.136v.079a.332.332,0,0,1,.316-.316H64.125a.51.51,0,0,0,.475-.474v-7.664c0-3.239-.711-5.61-1.976-6.874a12.254,12.254,0,0,0-6.794-1.738" transform="translate(-7.988 223.995)" fill="#fff"/><path d="M91.413-142.977h65.342v-4.029a.333.333,0,0,0-.316-.317H143.8c-.08,0-.08,0-.237-.079v-12.246a.331.331,0,0,0-.315-.316H138.5a.332.332,0,0,0-.316.316v11.93c0,.237-.236.237-.315.237h-4.82c-.236,0-.236-.237-.315-.237v-11.93a.332.332,0,0,0-.317-.316H127.6a.333.333,0,0,0-.316.316v11.93a.332.332,0,0,1-.316.316h-4.82a.332.332,0,0,1-.316-.316v-11.93a.332.332,0,0,0-.316-.316H116.7a.332.332,0,0,0-.316.316v11.93a.332.332,0,0,1-.316.316H89.517l-.238-.237v-17.7a.332.332,0,0,0-.316-.316h-4.82a.332.332,0,0,0-.316.316v21.965a.51.51,0,0,0,.473.474h27.812" transform="translate(-25.557 226.42)" fill="#fff"/><path d="M68.946-161.09A2.04,2.04,0,0,0,71-163.143a2.04,2.04,0,0,0-2.054-2.055,2.04,2.04,0,0,0-2.055,2.055,2.148,2.148,0,0,0,2.055,2.054" transform="translate(-20.394 226.282)" fill="#fff"/><path d="M170.159-102.913v1.738c0,.237-.079.237-.237.316a6.958,6.958,0,0,1-3.633,1.264c-1.186,0-1.739-.474-1.739-1.343v-.712c0-.79.315-1.264,1.264-1.264Zm-1.264-10.113a44.375,44.375,0,0,0-8.454.79H160.2l.553,3.792h.237c2.765-.237,5.057-.237,6.795-.237a4.834,4.834,0,0,1,1.976.316,2.251,2.251,0,0,1,.473,1.5v.475H164.55a5.341,5.341,0,0,0-3.793,1.185,3.87,3.87,0,0,0-1.343,3.239v1.738a4.49,4.49,0,0,0,1.58,3.634,6.29,6.29,0,0,0,4.029,1.264,7.374,7.374,0,0,0,5.847-2.607l.316,1.817a.332.332,0,0,0,.316.316h3.554a.511.511,0,0,0,.475-.475v-10.666c0-2.292-.553-3.872-1.738-4.82a7.918,7.918,0,0,0-4.9-1.264" transform="translate(-48.602 210.376)" fill="#fff"/><path d="M214.38-105.906h-4.346c.08-1.265.237-2.212.791-2.529a3.117,3.117,0,0,1,2.449-.711,4.034,4.034,0,0,1,2.055.316,1.739,1.739,0,0,1,.475,1.343,2.891,2.891,0,0,1-.237,1.185A1.453,1.453,0,0,1,214.38-105.906Zm5.372,2.29a5.052,5.052,0,0,0,1.265-3.634,5.512,5.512,0,0,0-1.975-4.5c-1.264-.948-3.239-1.5-6.085-1.5-3.081,0-5.293.711-6.557,1.976s-1.976,3.634-1.976,6.873c0,3.082.712,5.294,2.055,6.8,1.264,1.343,3.635,2.053,6.795,2.053a17.649,17.649,0,0,0,7.269-1.263l.237-.08-.553-3.477h-.237a58.016,58.016,0,0,1-6.083.317,4.7,4.7,0,0,1-2.608-.554,2.733,2.733,0,0,1-.947-1.974h5.609a5.284,5.284,0,0,0,3.792-1.028" transform="translate(-62.324 210.445)" fill="#fff"/><path d="M193.032-118.6a2.349,2.349,0,0,1,1.5-.317h3.239l.552-3.792h-.236a30.848,30.848,0,0,0-5.293-.316c-3.793,0-5.61,1.739-5.61,5.294v2.29l-2.766.238v3.476h2.766v12.642a.51.51,0,0,0,.475.475h4.582a.51.51,0,0,0,.475-.475v-12.642h4.5v-3.792h-4.5v-1.738a1.459,1.459,0,0,1,.315-1.343" transform="translate(-56.225 213.426)" fill="#fff"/><path d="M240.981-113.026a9.576,9.576,0,0,0-6.4,2.607l-.316-1.739a.331.331,0,0,0-.316-.316h-3.477A.509.509,0,0,0,230-112v15.8a.508.508,0,0,0,.474.474h4.582a.509.509,0,0,0,.475-.474v-10.429c0-.238.079-.316.237-.316a13.845,13.845,0,0,1,4.345-.948h1.58l.553-5.057-1.264-.078h0" transform="translate(-70.121 210.376)" fill="#fff"/><path d="M37.589-107.28h-4.03c-.237,0-.317-.238-.317-.474,1.265-4.819,2.055-7.822,2.292-9.165a9.358,9.358,0,0,1,.316,1.5c.237.552.79,3.239,2.055,7.664A.336.336,0,0,1,37.589-107.28ZM39.4-120.632c0-.237-.236-.237-.316-.237h-7.11c-.237,0-.237.079-.316.237L25.737-98.668a.348.348,0,0,0,.316.475h4.582c.238,0,.238-.079.316-.238l1.264-4.82c0-.237.238-.237.316-.237H38.3c.237,0,.237.08.316.237l1.264,4.82c0,.238.237.238.316.238h4.582c.237,0,.317-.238.317-.475L39.4-120.632" transform="translate(-7.84 212.767)" fill="#fff"/><path d="M60.968-120.642h-4.9a.331.331,0,0,0-.316.317v21.807a.332.332,0,0,0,.316.316h4.82a.332.332,0,0,0,.316-.316v-21.887c.079-.237-.157-.237-.236-.237" transform="translate(-16.998 212.698)" fill="#fff"/><path d="M89.478-112.685H68.54a3.306,3.306,0,0,0-3.239,3.239v13.432a.332.332,0,0,0,.316.316h4.741a.332.332,0,0,0,.316-.316v-12.01a.332.332,0,0,1,.316-.316h3.555a.332.332,0,0,1,.316.316v11.931a.332.332,0,0,0,.317.316h5.056a.333.333,0,0,0,.317-.316v-11.931a.332.332,0,0,1,.316-.316h2.765a.332.332,0,0,1,.316.316v11.931a.332.332,0,0,0,.316.316h4.82a.332.332,0,0,0,.316-.316v-16.2c.4-.157.317-.394.079-.394" transform="translate(-19.909 210.272)" fill="#fff"/><path d="M145.959-106.3h-4.345a1.53,1.53,0,0,1-.791-.236.956.956,0,0,1-.237-.791,1.272,1.272,0,0,1,.237-.711.954.954,0,0,1,.791-.238h7.268a.332.332,0,0,0,.316-.316v-3.555a.332.332,0,0,0-.316-.316h-9.164a5.2,5.2,0,0,0-3.477,1.264,4.592,4.592,0,0,0-1.265,3.477v1.185a5.2,5.2,0,0,0,1.265,3.476,4.915,4.915,0,0,0,3.477,1.264h5.373v1.028a1.528,1.528,0,0,1-.237.79c-.08.237-.475.237-.791.237h-8.375a.333.333,0,0,0-.317.316v3.635a.333.333,0,0,0,.317.316h10.191a5.2,5.2,0,0,0,3.477-1.265,4.915,4.915,0,0,0,1.264-3.476v-1.264a5.207,5.207,0,0,0-1.264-3.477,4.093,4.093,0,0,0-3.4-1.343" transform="translate(-41.151 210.203)" fill="#fff"/><path d="M188.646-144.828v-8.3h6.637l-6.084-4.346h-5.372a.333.333,0,0,0-.317.316v16.671s3.477-1.975,7.664-4.346h-2.528" transform="translate(-55.948 223.925)" fill="#fff"/><path d="M205.1-150.99h0s-2.291,1.264-5.293,2.844v5.293H190.72c-4.267,2.45-7.665,4.346-7.665,4.346h21.569a.333.333,0,0,0,.317-.316l.158-12.167h0" transform="translate(-55.809 221.95)" fill="#41a7b7"/><path d="M207.382-157.469h-15.8l6.084,4.346h4.82v3a53.844,53.844,0,0,1,5.293-2.844v-4.109c-.079-.158-.158-.395-.395-.395" transform="translate(-58.408 223.925)" fill="#ee2e49"/><path d="M197.653-160.114h2.371v.948h1.185v-2.054h-4.741v2.054h1.184v-.948" transform="translate(-59.899 225.069)" fill="#ee2e49"/></g></g></g></svg>