<svg xmlns="http://www.w3.org/2000/svg" width="134" height="78" viewBox="0 0 134 78">
    <g fill="#E5D4C2" fill-rule="evenodd">
        <path d="M122.172 20.86l-11.588 41.79v.001s-.173.425-1.792 4.804c-.274.74-.475 1.472-1.538 1.992-1.081.528-2.192.246-2.192.246l-5.295-1.447V78h9.19c6.96 0 9.219-3.44 11.827-12.465 3.395-11.754 12.542-44.675 12.542-44.675h-11.154zM39.657 52.777c-.48.151-1.243.258-1.968-.275-.804-.59-.745-1.771-.745-2.542 0-8.301.014-29.1.014-29.1H3.432v9.362h23.131v2.438c-.001 3.604-5.494 3.387-10.904 4.039C5.257 37.839 0 42.145 0 49.857c0 7.252 5.539 12.724 13.313 12.724 12.17 0 13.313-12.28 13.313-12.28-2.552 2.113-5.606 4.463-10.31 4.463-3.247 0-5.912-1.229-5.912-5.18 0-2.545 1.95-4.346 6.611-4.997 2.497-.35 7.384-.739 9.548-2.866v5.871c0 6.14.678 14.09 10.404 14.09h5.66v-9.89s-1.875.64-2.97.985M61.487 52.05c-.47.148-1.276.18-1.927-.27-.802-.556-.642-1.733-.642-2.488V0H48.07v49.27c0 7.151 2.324 10.352 8.007 11.233.831.168 1.75.264 2.777.264h5.541v-9.682s-1.836.626-2.908.964M85.068 52.05c-.47.148-1.276.18-1.927-.27-.802-.556-.642-1.733-.642-2.488V0H71.65v49.27c0 7.151 2.325 10.352 8.007 11.233.831.168 1.75.264 2.776.264h5.543v-9.682s-1.837.626-2.909.964"/>
        <path d="M110.651 61.674L100.725 21.767 89.791 21.767 99.717 61.674z"/>
    </g>
</svg>
