<svg width="193" height="50" viewBox="0 0 193 50" fill="none" xmlns="http://www.w3.org/2000/svg">
<rect width="49.2181" height="49.2181" rx="8.67719" fill="#FF3C28"/>
<path fill-rule="evenodd" clip-rule="evenodd" d="M37.0135 32.57C36.6893 32.6719 36.1742 32.7434 35.6848 32.3853C35.1417 31.9886 35.1822 31.1948 35.1822 30.6764C35.1822 25.0964 35.1911 11.1152 35.1911 11.1152H35.1509H28.1739H12.5587V17.4083H28.1739V19.0468V19.0475C28.1732 21.4698 24.4652 21.3241 20.8128 21.7622C13.7907 22.529 10.2419 25.4233 10.2419 30.6076C10.2419 35.4824 13.9809 39.1609 19.229 39.1609C27.4449 39.1609 28.2164 30.9052 28.2164 30.9052C26.4933 32.3262 24.4323 33.9062 21.2561 33.9062C19.0647 33.9062 17.2654 33.0799 17.2654 30.4233C17.2654 28.713 18.5819 27.5023 21.7284 27.0645C23.4139 26.8293 26.7132 26.568 28.1739 25.1381V29.0847C28.1739 33.2126 28.6314 38.557 35.1973 38.557H39.0189V31.9082C39.0189 31.9082 37.7524 32.3378 37.0135 32.57" fill="white"/>
<path fill-rule="evenodd" clip-rule="evenodd" d="M142.71 31.7674L143.931 28.5494H150.272L151.493 31.7674H154.685L148.922 16.7637H145.324L139.583 31.7674H142.71ZM149.261 25.9149H144.9L147.07 20.1688L149.261 25.9149ZM166.383 29.1136V31.7674H156.173V16.7637H159.32V29.1136H166.383ZM178.294 31.7674V29.1136H171.231V16.7637H168.084V31.7674H178.294ZM187.322 25.6656V31.7674H184.176V25.6656L178.613 16.7637H182.037L185.781 22.8446L189.526 16.7637H192.864L187.322 25.6656Z" fill="#FF3C28"/>
<path fill-rule="evenodd" clip-rule="evenodd" d="M120.14 31.7067C122.988 31.7067 125.375 29.9955 125.375 27.2979C125.375 24.6639 123.428 23.9243 121.364 23.4099L121.182 23.3651C120.993 23.3193 120.804 23.275 120.616 23.2309L120.361 23.1709C118.335 22.6877 116.992 22.3656 116.992 20.8356C116.992 19.4466 118.255 18.4802 120 18.4802C121.865 18.4802 123.008 19.4264 123.75 20.8155L125.214 19.6479C124.352 18.0172 122.547 16.8093 120.04 16.8093C117.313 16.8093 115.127 18.4601 115.127 20.9967C115.127 23.5591 117.123 24.2604 119.251 24.7877L119.445 24.8352L119.525 24.8546L119.639 24.8821C119.749 24.9084 119.858 24.9342 119.965 24.9596L119.965 24.9597C121.988 25.4396 123.49 25.7956 123.49 27.4589C123.49 29.1097 122.046 30.0358 120.181 30.0358C118.315 30.0358 116.691 29.0292 115.788 27.2979L114.284 28.5058C115.267 30.4585 117.654 31.7067 120.14 31.7067ZM62.0957 31.5547V25.1385H68.3273V23.449H62.0957V18.8029H69.4658V17.1134H60.1982V31.5547H62.0957ZM73.7197 31.5547V17.1134H71.7447V31.5547H73.7197ZM82.3569 18.8029V31.5547H80.4272V18.8029H75.5429V17.1134H87.2412V18.8029H82.3569ZM91.0651 31.5547V19.9292L98.9428 31.5547H100.611V17.1134H98.7418V28.2762L91.246 17.1134H89.2163V31.5547H91.0651ZM113.069 29.8651V31.5547H103.801V17.1134H113.069V18.8029H105.678V23.2479H111.942V24.9374H105.678V29.8651H113.069ZM137.073 27.2979C137.073 29.9955 134.687 31.7067 131.839 31.7067C129.352 31.7067 126.965 30.4585 125.983 28.5058L127.487 27.2979C128.389 29.0292 130.014 30.0358 131.879 30.0358C133.744 30.0358 135.188 29.1097 135.188 27.4589C135.188 25.7956 133.687 25.4396 131.663 24.9597C131.556 24.9342 131.447 24.9084 131.337 24.8821C131.273 24.8665 131.208 24.851 131.143 24.8352L130.949 24.7877C128.822 24.2604 126.825 23.5591 126.825 20.9967C126.825 18.4601 129.011 16.8093 131.738 16.8093C134.245 16.8093 136.05 18.0172 136.913 19.6479L135.449 20.8155C134.707 19.4264 133.564 18.4802 131.698 18.4802C129.954 18.4802 128.69 19.4466 128.69 20.8356C128.69 22.3656 130.034 22.6877 132.059 23.1709C132.144 23.1909 132.229 23.2108 132.314 23.2308C132.503 23.2749 132.692 23.3193 132.88 23.3651L133.063 23.4099C135.127 23.9243 137.073 24.6639 137.073 27.2979Z" fill="#FF3C28"/>
</svg>
