<svg width="199" height="51" viewBox="0 0 199 51" fill="none" xmlns="http://www.w3.org/2000/svg">
<rect width="50.6244" height="50.6244" rx="8.92511" fill="white"/>
<path fill-rule="evenodd" clip-rule="evenodd" d="M38.0711 33.5007C37.7377 33.6055 37.2078 33.679 36.7044 33.3107C36.1458 32.9027 36.1875 32.0862 36.1875 31.5529C36.1875 25.8135 36.1966 11.4329 36.1966 11.4329H36.1553H28.979H12.9176V17.9058H28.979V19.5911V19.5918C28.9783 22.0834 25.1643 21.9335 21.4075 22.3841C14.1848 23.1728 10.5347 26.1498 10.5347 31.4822C10.5347 36.4963 14.3805 40.2799 19.7785 40.2799C28.2291 40.2799 29.0226 31.7883 29.0226 31.7883C27.2504 33.2499 25.1304 34.875 21.8635 34.875C19.6096 34.875 17.7588 34.0252 17.7588 31.2926C17.7588 29.5334 19.1129 28.2882 22.3493 27.8379C24.083 27.5959 27.4765 27.3272 28.979 25.8564V29.9158C28.979 34.1616 29.4495 39.6587 36.2031 39.6587H40.1338V32.82C40.1338 32.82 38.8311 33.2618 38.0711 33.5007" fill="#FF3C28"/>
<path fill-rule="evenodd" clip-rule="evenodd" d="M146.788 32.6751L148.044 29.3651H154.566L155.821 32.6751H159.104L153.178 17.2427H149.476L143.571 32.6751H146.788ZM153.526 26.6554H149.041L151.272 20.7451L153.526 26.6554ZM171.137 29.9454V32.6751H160.636V17.2427H163.872V29.9454H171.137ZM183.388 32.6751V29.9454H176.123V17.2427H172.887V32.6751H183.388ZM192.674 26.399V32.6751H189.439V26.399L183.716 17.2427H187.238L191.089 23.4973L194.941 17.2427H198.374L192.674 26.399Z" fill="white"/>
<path fill-rule="evenodd" clip-rule="evenodd" d="M123.573 32.6125C126.502 32.6125 128.957 30.8525 128.957 28.0778C128.957 25.3686 126.955 24.6078 124.832 24.0787L124.644 24.0326C124.45 23.9856 124.256 23.94 124.063 23.8947L124.062 23.8945L123.8 23.8329C121.716 23.3359 120.334 23.0046 120.334 21.4309C120.334 20.0021 121.634 19.0082 123.429 19.0082C125.347 19.0082 126.523 19.9814 127.286 21.4102L128.792 20.2092C127.905 18.532 126.048 17.2896 123.47 17.2896C120.664 17.2896 118.416 18.9875 118.416 21.5966C118.416 24.2322 120.47 24.9535 122.658 25.4959L122.858 25.5448C122.924 25.561 122.991 25.577 123.057 25.593C123.17 25.6201 123.282 25.6466 123.393 25.6728C125.474 26.1664 127.018 26.5326 127.018 28.2434C127.018 29.9414 125.533 30.8939 123.614 30.8939C121.696 30.8939 120.025 29.8586 119.097 28.0778L117.549 29.3202C118.56 31.3287 121.015 32.6125 123.573 32.6125ZM63.8699 32.4562V25.8568H70.2795V24.119H63.8699V19.3401H71.4505V17.6023H61.9182V32.4562H63.8699ZM75.826 32.4562V17.6023H73.7946V32.4562H75.826ZM84.7099 19.3401V32.4562H82.7252V19.3401H77.7012V17.6023H89.7339V19.3401H84.7099ZM93.667 32.4562V20.4986L101.77 32.4562H103.485V17.6023H101.563V29.0841L93.853 17.6023H91.7653V32.4562H93.667ZM116.299 30.7184V32.4562H106.767V17.6023H116.299V19.3401H108.698V23.9121H115.141V25.6499H108.698V30.7184H116.299ZM140.99 28.0778C140.99 30.8525 138.535 32.6125 135.606 32.6125C133.048 32.6125 130.593 31.3287 129.582 29.3202L131.129 28.0778C132.058 29.8586 133.728 30.8939 135.647 30.8939C137.565 30.8939 139.051 29.9414 139.051 28.2434C139.051 26.5326 137.506 26.1664 135.425 25.6728C135.315 25.6466 135.203 25.6201 135.09 25.593C135.023 25.577 134.957 25.561 134.89 25.5448L134.691 25.4959C132.502 24.9535 130.448 24.2322 130.448 21.5966C130.448 18.9875 132.697 17.2896 135.502 17.2896C138.081 17.2896 139.938 18.532 140.825 20.2092L139.319 21.4102C138.555 19.9814 137.38 19.0082 135.461 19.0082C133.667 19.0082 132.367 20.0021 132.367 21.4309C132.367 23.0046 133.749 23.3359 135.833 23.8329C135.92 23.8535 136.007 23.874 136.095 23.8945C136.288 23.9399 136.483 23.9855 136.677 24.0326L136.864 24.0787C138.987 24.6078 140.99 25.3686 140.99 28.0778Z" fill="white"/>
</svg>
