<svg xmlns="http://www.w3.org/2000/svg" width="148" height="69"><defs><clipPath id="a"><path d="M0 0h148v69H0z"/></clipPath></defs><g data-name="Artboard – 1"><g data-name="Group 1114" clip-path="url(#a)"><g data-name="Group 1049"><path data-name="Path 3108" d="M34.185 1A33.483 33.483 0 0 0 1.132 29.051a4.81 4.81 0 0 1-.116 9.619H1A33.464 33.464 0 1 0 34.185 1.001m0 57.324a23.993 23.993 0 1 1 23.507-29.257 4.807 4.807 0 0 0 .192 9.589 24.1 24.1 0 0 1-23.7 19.668" fill="#ac1b20"/></g><g data-name="Group 1052"><path data-name="Rectangle 3637" fill="#1a2a36" d="M75.783 11.394h2.982v18.468h-2.982z"/><g data-name="Group 1051"><g data-name="Group 1050" fill="#1a2a36"><path data-name="Path 3109" d="M92.799 31.385a1.49 1.49 0 0 0-1.492 1.484 1.491 1.491 0 1 0 1.492-1.485"/><path data-name="Path 3110" d="M89.174 31.385a1.485 1.485 0 1 0 1.49 1.485 1.489 1.489 0 0 0-1.49-1.484"/><path data-name="Path 3111" d="M144.1 18.368v4.308a10.253 10.253 0 0 1-.092 1.348 5.058 5.058 0 0 1-.358 1.322.955.955 0 0 1-.093.167 2.894 2.894 0 0 1-2.427 1.359h-.081a2.883 2.883 0 0 1-2.4-1.305l-.033-.055a1.263 1.263 0 0 1-.092-.168 5.055 5.055 0 0 1-.357-1.318 10.229 10.229 0 0 1-.092-1.35v-4.308h-3v4.308a10.143 10.143 0 0 1-.092 1.348 5.057 5.057 0 0 1-.356 1.322 1.369 1.369 0 0 1-.087.158l-.038.064a2.882 2.882 0 0 1-2.4 1.3h-.081a2.878 2.878 0 0 1-2.4-1.305 1.63 1.63 0 0 1-.127-.229 5.022 5.022 0 0 1-.355-1.312 10.2 10.2 0 0 1-.092-1.35v-4.308h-2.995v4.308a10.05 10.05 0 0 1-.092 1.348 5.072 5.072 0 0 1-.357 1.322 1.22 1.22 0 0 1-.088.162l-.035.059a2.884 2.884 0 0 1-2.4 1.305h-22.73a2.888 2.888 0 0 1-2.37-1.268l-.122-.255a5.047 5.047 0 0 1-.357-1.322 10.047 10.047 0 0 1-.093-1.348v-4.308h-3.01v4.308a10.334 10.334 0 0 1-.091 1.35 5.066 5.066 0 0 1-.357 1.318 1.121 1.121 0 0 1-.092.168l-.015.025a2.731 2.731 0 0 1-1.511 1.166 3.783 3.783 0 0 1-.9.169h-.077a3.748 3.748 0 0 1-.911-.172 2.733 2.733 0 0 1-1.5-1.165l-.015-.024a1.19 1.19 0 0 1-.092-.168 5.053 5.053 0 0 1-.357-1.318 10.345 10.345 0 0 1-.092-1.35v-4.308h-3v4.308c0 .438-.056.89-.092 1.348-.333 4.331-3.811 11.449-5.338 12.624h3.956a19.916 19.916 0 0 0 1.492-2.811c.089-.211.208-.509.342-.856l.026-.077c.481-1.249 1.165-3.137 1.649-4.451.058.055.12.106.18.159l.06.054c.1.084.2.163.307.24l.03.023a4.948 4.948 0 0 0 .748.443 5.457 5.457 0 0 0 2.361.5c.041 0 .08 0 .12-.005h.02l.134-.006.146.007h.011c.04 0 .079.005.119.005h.015a5.441 5.441 0 0 0 2.361-.5 5.017 5.017 0 0 0 1.433-1.022l.131-.133.092-.092.2-.2.42.427a5.076 5.076 0 0 0 1.432 1.021 10.28 10.28 0 0 0 2.482.49h22.963a10.319 10.319 0 0 0 2.483-.491 5.067 5.067 0 0 0 1.432-1.022l.435-.443.437.443a5.027 5.027 0 0 0 1.432 1.022 5.447 5.447 0 0 0 2.362.5c.039 0 .079 0 .119-.005l.143-.007.173.007c.039 0 .079.005.12.005a5.455 5.455 0 0 0 2.362-.5 5.044 5.044 0 0 0 1.432-1.022l.436-.443.436.443a5.054 5.054 0 0 0 1.432 1.022 5.456 5.456 0 0 0 2.363.5c.04 0 .08 0 .12-.005l.142-.007.173.007c.04 0 .079.005.121.005a5.454 5.454 0 0 0 2.361-.5 5.09 5.09 0 0 0 1.77-1.394 5.893 5.893 0 0 0 .694-1.1 6.812 6.812 0 0 0 .422-.9 7.408 7.408 0 0 0 .446-2.136h-.009l.015-.744c.007-.14.014-.278.014-.423v-4.308z"/><path data-name="Path 3112" d="M125.831 57.235l-4.877-7.047a6.406 6.406 0 0 0-.915.624 4.685 4.685 0 0 0-.792.85 2.55 2.55 0 0 0-.341.775 6.76 6.76 0 0 0-.184.937c-.041.325-.065.642-.072.949s-.013.562-.013.762v2.149h-2.951V38.668h6.657a7.5 7.5 0 0 1 1.62.3 5.788 5.788 0 0 1 1.244.538 4.963 4.963 0 0 1 .9.674 5.948 5.948 0 0 1 .622.687 4.983 4.983 0 0 1 .853 1.988 5.583 5.583 0 0 1-.049 2.311 4.642 4.642 0 0 1-.6 1.475 5.13 5.13 0 0 1-.914 1.072 5.924 5.924 0 0 1-1.086.763 9.631 9.631 0 0 1-1.157.537l5.68 8.221zm-7.2-9.171a8.945 8.945 0 0 1 1.658-.961q.829-.363 1.585-.639.683-.248 1.158-.449a3.829 3.829 0 0 0 .781-.425 1.985 1.985 0 0 0 .487-.5 2.071 2.071 0 0 0 .28-.675 3.14 3.14 0 0 0 .086-.862 1.57 1.57 0 0 0-.328-.912 2.753 2.753 0 0 0-2.146-.949h-3.561v6.371z"/><path data-name="Path 3113" d="M139.495 48.593a3.726 3.726 0 0 1-.766.417q-.466.2-1.135.44c-.233.085-.472.178-.716.275l1.908-4.273 1.185 2.652a1.953 1.953 0 0 1-.477.489m-.708-10.343l-8.294 18.984h3.059l.218-.492c0 .011 0 .013 0 0l.224-.509c.33-.614.914-1.532 1.018-1.686a4.575 4.575 0 0 1 .778-.833 6.291 6.291 0 0 1 .9-.613l2.773-1.15a9.776 9.776 0 0 0 1.136-.527 5.747 5.747 0 0 0 .655-.426l.742 1.731 2.032 4.506h3.059z"/><path data-name="Path 3114" d="M87.669 50.169a4.451 4.451 0 0 0-.886-1.542 7.708 7.708 0 0 0-1.627-1.376 18.241 18.241 0 0 0-2.512-1.326 9.513 9.513 0 0 1-1.53-.837 3.6 3.6 0 0 1-.777-.706 1.343 1.343 0 0 1-.28-.55 2.465 2.465 0 0 1-.036-.371 1.547 1.547 0 0 1 .413-1.219 2.1 2.1 0 0 1 1.578-.6 1.964 1.964 0 0 1 .813.168 2.374 2.374 0 0 1 .668.443 1.9 1.9 0 0 1 .449.645 2.057 2.057 0 0 1 .157.8h2.986a4.741 4.741 0 0 0-.4-1.938 5.2 5.2 0 0 0-1.079-1.59 5.092 5.092 0 0 0-3.594-1.471 5.422 5.422 0 0 0-2.063.394 4.888 4.888 0 0 0-1.675 1.112 4.394 4.394 0 0 0-1.02 1.53 4.515 4.515 0 0 0-.316 1.795 4 4 0 0 0 .473 1.865 5.365 5.365 0 0 0 1.118 1.411 7.718 7.718 0 0 0 1.456 1.029q.789.429 1.517.74a8.745 8.745 0 0 1 1.943 1.053 4.491 4.491 0 0 1 .984.979 1.866 1.866 0 0 1 .339.813q.036.36.037.55a2.042 2.042 0 0 1-1.008 1.877 2.811 2.811 0 0 1-.9.346 4.265 4.265 0 0 1-.863.1 2.7 2.7 0 0 1-1.942-.8 2.825 2.825 0 0 1-.582-.885c-.032-.076-.048-.159-.072-.237a9.575 9.575 0 0 1-.128-.682c0-.065-.018-.126-.018-.193a.169.169 0 0 1 0-.053l-3.667-.039a6.827 6.827 0 0 1 .651 1.209c.148.344.254.606.431 1.006.009.021.014.044.024.066a5.662 5.662 0 0 0 1.225 1.853 5.331 5.331 0 0 0 1.858 1.267 5.812 5.812 0 0 0 2.22.43 6.214 6.214 0 0 0 4.006-1.243 4.4 4.4 0 0 0 .643-.61 5.06 5.06 0 0 0 .607-.86 5.063 5.063 0 0 0 .643-2.547 5.838 5.838 0 0 0-.267-1.805"/><path data-name="Path 3115" d="M108.882 41.631h4.856v-2.962h-5.581a4.63 4.63 0 0 0-4.625 4.624v9.351a4.631 4.631 0 0 0 4.625 4.625h5.581v-2.987h-4.856a2.412 2.412 0 0 1 0-4.824h4.856v-3h-4.856a2.412 2.412 0 0 1 0-4.824"/><path data-name="Path 3116" d="M96.014 41.631h4.856v-2.962h-5.581a4.629 4.629 0 0 0-4.624 4.624v9.351a4.63 4.63 0 0 0 4.624 4.625h5.581v-2.987h-4.856a2.412 2.412 0 0 1 0-4.824h4.856v-3h-4.856a2.412 2.412 0 0 1 0-4.824"/></g></g></g></g></g></svg>