<?xml version="1.0" encoding="UTF-8"?>
<svg width="112px" height="112px" viewBox="0 0 112 112" version="1.1" xmlns="http://www.w3.org/2000/svg" xmlns:xlink="http://www.w3.org/1999/xlink">
    <!-- Generator: Sketch 59.1 (86144) - https://sketch.com -->
    <title>Unfoldit-Vector112</title>
    <desc>Created with Sketch.</desc>
    <defs>
        <linearGradient x1="24.8174282%" y1="92.7624656%" x2="58.3266977%" y2="39.0341886%" id="linearGradient-1">
            <stop stop-color="#F0F0F0" offset="0%"></stop>
            <stop stop-color="#FDFDFD" offset="100%"></stop>
        </linearGradient>
        <linearGradient x1="50%" y1="0%" x2="50%" y2="100%" id="linearGradient-2">
            <stop stop-color="#FFC361" offset="0%"></stop>
            <stop stop-color="#FF9032" offset="100%"></stop>
        </linearGradient>
        <linearGradient x1="50%" y1="0%" x2="50%" y2="100%" id="linearGradient-3">
            <stop stop-color="#D7EE83" offset="0%"></stop>
            <stop stop-color="#AED94C" offset="100%"></stop>
        </linearGradient>
        <linearGradient x1="50%" y1="0%" x2="50%" y2="100%" id="linearGradient-4">
            <stop stop-color="#40D0F9" offset="0%"></stop>
            <stop stop-color="#1EA4F0" offset="100%"></stop>
        </linearGradient>
        <linearGradient x1="50%" y1="0%" x2="50%" y2="100%" id="linearGradient-5">
            <stop stop-color="#F7598E" offset="0%"></stop>
            <stop stop-color="#EB2D55" offset="100%"></stop>
        </linearGradient>
    </defs>
    <g id="Page-1" stroke="none" stroke-width="1" fill="none" fill-rule="evenodd">
        <g id="Unfoldit-Vector112">
            <path d="M55.9453659,0 C86.8431382,-5.67582871e-15 111.890732,25.0475935 111.890732,55.9453659 C111.890732,86.8431382 86.8431382,111.890732 55.9453659,111.890732 C25.0475935,111.890732 3.78388581e-15,86.8431382 0,55.9453659 C-3.78388581e-15,25.0475935 25.0475935,5.67582871e-15 55.9453659,0 Z" id="RoundedAppIcon" fill="url(#linearGradient-1)"></path>
            <g id="Sub">
                <path d="M32.048565,2.33253617e-15 L79.8421667,1.29480038e-15 C90.986151,-7.52316311e-16 95.0272289,1.16032014 99.101303,3.3391588 C103.175377,5.51799746 106.372734,8.71535463 108.551573,12.7894287 C110.730412,16.8635028 111.890732,20.9045808 111.890732,32.048565 L111.890732,79.8421667 C111.890732,90.986151 110.730412,95.0272289 108.551573,99.101303 C106.372734,103.175377 103.175377,106.372734 99.101303,108.551573 C95.0272289,110.730412 90.986151,111.890732 79.8421667,111.890732 L32.048565,111.890732 C20.9045808,111.890732 16.8635028,110.730412 12.7894287,108.551573 C8.71535463,106.372734 5.51799746,103.175377 3.3391588,99.101303 C1.16032014,95.0272289 -1.60604279e-15,90.986151 2.7641363e-15,79.8421667 L8.63200256e-16,32.048565 C-5.01544207e-16,20.9045808 1.16032014,16.8635028 3.3391588,12.7894287 C5.51799746,8.71535463 8.71535463,5.51799746 12.7894287,3.3391588 C16.8635028,1.16032014 20.9045808,-1.35527069e-15 32.048565,2.33253617e-15 Z" id="Background" fill="#FFFFFF"></path>
                <g id="Triangles" transform="translate(56.054634, 56.000000) rotate(-90.000000) translate(-56.054634, -56.000000) translate(15.133659, 15.133659)">
                    <polygon id="Orange" fill="url(#linearGradient-2)" transform="translate(27.927665, 53.770346) rotate(45.000000) translate(-27.927665, -53.770346) " points="27.927665 43.1977248 56.7744942 64.3429679 -0.91916429 64.3429679"></polygon>
                    <polygon id="Triangle" fill="url(#linearGradient-3)" transform="translate(27.927665, 27.873761) rotate(135.000000) translate(-27.927665, -27.873761) " points="27.927665 17.3011394 56.7744942 38.4463825 -0.91916429 38.4463825"></polygon>
                    <polygon id="Triangle" fill="url(#linearGradient-4)" transform="translate(53.878884, 27.873761) rotate(-135.000000) translate(-53.878884, -27.873761) " points="53.8788845 17.3011394 82.7257138 38.4463825 25.0320552 38.4463825"></polygon>
                    <polygon id="Triangle" fill="url(#linearGradient-5)" transform="translate(53.878884, 53.770346) rotate(-45.000000) translate(-53.878884, -53.770346) " points="53.8788845 43.1977248 82.7257138 64.3429679 25.0320552 64.3429679"></polygon>
                </g>
            </g>
        </g>
    </g>
</svg>